<?xml version="1.0" encoding="utf-8"?>
<!-- Generator: Adobe Illustrator 21.1.0, SVG Export Plug-In . SVG Version: 6.00 Build 0)  -->
<svg version="1.1" id="play-button" xmlns="http://www.w3.org/2000/svg" xmlns:xlink="http://www.w3.org/1999/xlink" x="0px"
	 y="0px" viewBox="0 0 95.9 107.7" style="enable-background:new 0 0 95.9 107.7;" xml:space="preserve">
<style type="text/css">
	.st0{fill:none;stroke:#000000;stroke-width:0.25;stroke-miterlimit:10;}
</style>
<title>Play Button</title>
<path d="M34.9-137.2c0-14,0-28,0-42c0-9.9,7.3-14.3,15.8-9.4c24.6,14,49.1,28.1,73.6,42.4c8.7,5.1,8.7,13.8,0,18.8
	c-24.3,14.1-48.7,28.2-73.1,42.2c-9.1,5.2-16.2,0.9-16.3-9.7C34.9-108.9,34.9-123,34.9-137.2z"/>
<line class="st0" x1="34.9" y1="-179.2" x2="34.9" y2="-199.1"/>
<line class="st0" x1="50.7" y1="-188.6" x2="34.9" y2="-199.1"/>
<line class="st0" x1="95.1" y1="-163.1" x2="140.7" y2="-136.7"/>
<line class="st0" x1="104.7" y1="-115.9" x2="140.7" y2="-136.7"/>
<line class="st0" x1="34.8" y1="-93.8" x2="34.9" y2="-75.9"/>
<line class="st0" x1="73" y1="-97.7" x2="34.9" y2="-75.9"/>
<polygon points="1.6,107.7 94.3,53.9 1.6,0 "/>
</svg>
