<?xml version="1.0" encoding="utf-8"?>
<!-- Generator: Adobe Illustrator 21.1.0, SVG Export Plug-In . SVG Version: 6.00 Build 0)  -->
<svg version="1.1" id="Layer_1" xmlns="http://www.w3.org/2000/svg" xmlns:xlink="http://www.w3.org/1999/xlink" x="0px" y="0px"
	 viewBox="0 0 95.9 107.7" style="enable-background:new 0 0 95.9 107.7;" xml:space="preserve">
<style type="text/css">
	.st0{fill:#97FA4E;}
</style>
<title>buttons</title>
<path class="st0" d="M29.8,107.7H14.2c-5.9,0-10.8-4.7-10.8-10.5V10.5C3.5,4.7,8.3,0,14.2,0h15.6c5.9,0,10.8,4.7,10.8,10.5v86.6
	C40.6,103,35.8,107.7,29.8,107.7z"/>
<path class="st0" d="M81.7,107.7H66.2c-5.9,0-10.8-4.7-10.8-10.5V10.5C55.4,4.7,60.2,0,66.2,0h15.6c5.9,0,10.8,4.7,10.8,10.5v86.6
	C92.5,103,87.7,107.7,81.7,107.7z"/>
</svg>
