<?xml version="1.0" encoding="utf-8"?>
<!-- Generator: Adobe Illustrator 21.1.0, SVG Export Plug-In . SVG Version: 6.00 Build 0)  -->
<svg version="1.1" id="Layer_1" xmlns="http://www.w3.org/2000/svg" xmlns:xlink="http://www.w3.org/1999/xlink" x="0px" y="0px"
	 viewBox="0 0 107.7 107.7" style="enable-background:new 0 0 107.7 107.7;" xml:space="preserve">
<title>buttons</title>
<rect x="9.3" y="-130" width="37.2" height="107.7"/>
<rect x="61.3" y="-130" width="37.2" height="107.7"/>
<g id="K9mZ6C.tif">
	
		<image style="overflow:visible;" width="225" height="225" id="Layer_0" xlink:href="63D01B76C17782D8.png"  transform="matrix(1 0 0 1 -388.6 -193.5)">
	</image>
</g>
<g>
	<path d="M53.9,87.6c-16,0-29-13-29-29c0-15.3,11.9-27.8,26.9-28.9v13.7l20.6-20.6L51.8,2.3v11.8C28.1,15.1,9.2,34.7,9.2,58.6
		c0,24.7,20,44.6,44.7,44.6c24.3,0,44-19.3,44.6-43.4H82.8C82.2,75.3,69.4,87.6,53.9,87.6z"/>
	<path d="M98.5,59.9L98.5,59.9l0-1.2C98.5,59.1,98.5,59.5,98.5,59.9z"/>
</g>
</svg>
